<svg id="Calque_1" data-name="Calque 1" xmlns="http://www.w3.org/2000/svg" viewBox="0 0 28.21 40"><defs><style>.cls-1{fill:#0065fc;}</style></defs><path class="cls-1" d="M22.29,29.39c-.33-1-.65-1.91-1-2.7s-.55-1.45-.78-2a19.6,19.6,0,0,1-4.17.88c0,2.1.05,3.88.15,5.35,0,.91.06,1.7.1,2.35s.11,1.16.14,1.62.13.86.2,1.22a5.85,5.85,0,0,0,.29,1.13,7.6,7.6,0,0,1-1.91,1.08,10.52,10.52,0,0,1-1.57.49,4,4,0,0,1-1.47.1c-.16-.46-.31-.95-.44-1.47a11.47,11.47,0,0,1-.29-2.06c0-.85-.05-1.95-.05-3.29s.05-3,.14-5.14a4,4,0,0,0,0-.69,5.34,5.34,0,0,1,.05-.69l-.93-.09-.88-.1A6.8,6.8,0,0,1,9.55,24a6.61,6.61,0,0,1-.1-1,2.45,2.45,0,0,1,.1-.79,8.27,8.27,0,0,0,1.57.15h.73c.07-1.37.13-2.76.2-4.17s.11-2.82.14-4.16.12-2.67.15-3.88.07-2.36.1-3.38A9.66,9.66,0,0,0,9.89,9.29a9.45,9.45,0,0,0-1.47,3.63,1.82,1.82,0,0,1-1.08-.59,6.85,6.85,0,0,1-.73-1.08A7.66,7.66,0,0,1,6,9.83,3.46,3.46,0,0,1,6,8a6.94,6.94,0,0,1,.73-1.82A7.42,7.42,0,0,1,7.88,4.63,7.15,7.15,0,0,1,9.11,3.56a17.73,17.73,0,0,1,2.1-1.13,13.6,13.6,0,0,1,2.5-.88,8.52,8.52,0,0,1,1.18-1A3.29,3.29,0,0,1,16.16,0c.56-.13.87.21.94,1A6.87,6.87,0,0,1,18,1a8.46,8.46,0,0,1,1-.05,13.49,13.49,0,0,1,3.87.59A10.65,10.65,0,0,1,26.6,3.46a9.54,9.54,0,0,1,2.8,3.38,10.77,10.77,0,0,1,1.08,5.05,12.34,12.34,0,0,1-1.62,6.22,12.93,12.93,0,0,1-4.51,4.71c.23.59.52,1.32.88,2.21s.72,1.87,1.08,3c.52,1.37,1.08,2.66,1.67,3.87A25.44,25.44,0,0,0,29.89,35,9.58,9.58,0,0,0,32,37.08a4.46,4.46,0,0,0,2.15,1,3.62,3.62,0,0,1-1.47,1.38,5.51,5.51,0,0,1-1.66.49,7.14,7.14,0,0,1-2,0,4.61,4.61,0,0,1-2.45-1.38A11.05,11.05,0,0,1,24.74,36c-.49-1-.95-2.1-1.37-3.24S22.62,30.43,22.29,29.39ZM16.61,8.51c0,.72,0,1.58-.05,2.59s-.07,2.11-.1,3.29,0,2.42-.05,3.72-.05,2.55-.05,3.83a24,24,0,0,0,2.89-.64,8.61,8.61,0,0,0,3-1.47,8.27,8.27,0,0,0,2.31-2.75,9.19,9.19,0,0,0,.93-4.41,7.52,7.52,0,0,0-.74-3.48,6.35,6.35,0,0,0-1.81-2.35,6.85,6.85,0,0,0-2.5-1.32,8.18,8.18,0,0,0-2.65-.44h-.49a3.62,3.62,0,0,0-.54,0C16.65,6.17,16.61,7.3,16.61,8.51Z" transform="translate(-5.9 0)"/></svg>